<?xml version="1.0" standalone="no"?>
<!DOCTYPE svg PUBLIC "-//W3C//DTD SVG 20010904//EN"
 "http://www.w3.org/TR/2001/REC-SVG-20010904/DTD/svg10.dtd">
<svg version="1.0" xmlns="http://www.w3.org/2000/svg"
 width="48.000000pt" height="48.000000pt" viewBox="0 0 48.000000 48.000000"
 preserveAspectRatio="xMidYMid meet">

<g transform="translate(0.000000,48.000000) scale(0.100000,-0.100000)"
fill="#000000" stroke="none">
<path d="M66 398 c-33 -52 -43 -148 -15 -148 5 0 9 -38 9 -85 0 -100 5 -105
99 -105 l60 0 3 58 c2 43 7 57 18 57 11 0 16 -14 18 -57 l3 -58 64 0 c87 0 95
10 95 111 0 43 4 79 9 79 33 0 8 140 -29 160 -10 5 -86 10 -169 10 -145 0
-151 -1 -165 -22z m207 -123 c24 -31 33 -35 72 -35 l45 0 0 -75 0 -75 -50 0
-50 0 0 44 c0 48 -19 76 -50 76 -31 0 -50 -28 -50 -76 l0 -44 -50 0 -50 0 0
75 0 75 44 0 c40 0 48 4 72 35 14 19 29 35 33 35 3 0 19 -16 34 -35z"/>
<path d="M124 186 c-8 -22 3 -49 19 -43 16 5 16 49 0 54 -7 3 -16 -2 -19 -11z"/>
<path d="M324 186 c-8 -22 3 -49 19 -43 6 2 12 14 12 27 0 27 -22 39 -31 16z"/>
</g>
</svg>
