<?xml version="1.0" standalone="no"?>
<!DOCTYPE svg PUBLIC "-//W3C//DTD SVG 20010904//EN"
 "http://www.w3.org/TR/2001/REC-SVG-20010904/DTD/svg10.dtd">
<svg version="1.0" xmlns="http://www.w3.org/2000/svg"
 width="48.000000pt" height="48.000000pt" viewBox="0 0 48.000000 48.000000"
 preserveAspectRatio="xMidYMid meet">

<g transform="translate(0.000000,48.000000) scale(0.100000,-0.100000)"
fill="#000000" stroke="none">
<path d="M194 432 c-7 -4 -14 -18 -15 -32 -4 -22 -9 -25 -47 -25 -36 0 -45 -4
-62 -30 -25 -38 -25 -61 0 -75 26 -14 26 -46 0 -60 -25 -14 -25 -37 0 -75 17
-26 26 -30 62 -30 38 0 43 -3 47 -25 4 -31 17 -40 61 -40 44 0 57 9 61 40 4
22 9 25 47 25 36 0 45 4 62 30 25 38 25 61 0 75 -11 6 -20 19 -20 30 0 11 9
24 20 30 25 14 25 37 0 75 -17 26 -26 30 -62 30 -38 0 -43 3 -47 25 -4 31 -17
40 -61 40 -19 0 -40 -4 -46 -8z m76 -40 c0 -30 35 -55 70 -50 23 4 35 0 45
-15 12 -18 12 -23 -5 -45 -25 -31 -25 -53 0 -84 17 -22 17 -27 5 -45 -10 -15
-22 -19 -45 -15 -35 5 -70 -20 -70 -50 0 -13 -8 -18 -30 -18 -22 0 -30 5 -30
18 0 30 -35 55 -70 50 -23 -4 -35 0 -45 15 -12 18 -12 23 5 45 25 31 25 53 0
84 -17 22 -17 27 -5 45 10 15 22 19 45 15 35 -5 70 20 70 50 0 13 8 18 30 18
22 0 30 -5 30 -18z"/>
<path d="M185 295 c-50 -49 -15 -135 55 -135 19 0 40 9 55 25 50 49 15 135
-55 135 -19 0 -40 -9 -55 -25z m89 -21 c31 -30 9 -84 -34 -84 -24 0 -50 26
-50 50 0 10 7 26 16 34 8 9 24 16 34 16 10 0 26 -7 34 -16z"/>
</g>
</svg>
