<?xml version="1.0" standalone="no"?>
<!DOCTYPE svg PUBLIC "-//W3C//DTD SVG 20010904//EN"
 "http://www.w3.org/TR/2001/REC-SVG-20010904/DTD/svg10.dtd">
<svg version="1.0" xmlns="http://www.w3.org/2000/svg"
 width="48.000000pt" height="48.000000pt" viewBox="0 0 48.000000 48.000000"
 preserveAspectRatio="xMidYMid meet">

<g transform="translate(0.000000,48.000000) scale(0.100000,-0.100000)"
fill="#000000" stroke="none">
<path d="M102 408 c-7 -7 -12 -29 -12 -50 0 -30 -4 -38 -18 -38 -35 0 -42 -21
-42 -122 0 -141 -5 -138 210 -138 222 0 210 -10 210 181 0 77 -5 149 -10 160
-10 18 -23 19 -168 19 -110 0 -162 -4 -170 -12z m318 -156 c0 -94 -4 -142 -12
-150 -17 -17 -319 -17 -336 0 -8 8 -12 45 -12 100 0 72 3 88 15 88 12 0 15
-16 15 -85 0 -69 3 -85 15 -85 13 0 15 22 15 135 l0 135 150 0 150 0 0 -138z"/>
<path d="M150 315 c0 -12 20 -15 120 -15 100 0 120 3 120 15 0 13 -20 15 -120
15 -100 0 -120 -2 -120 -15z"/>
<path d="M150 235 c0 -12 13 -15 55 -15 42 0 55 3 55 15 0 12 -13 15 -55 15
-42 0 -55 -3 -55 -15z"/>
<path d="M290 235 c0 -11 12 -15 50 -15 38 0 50 4 50 15 0 11 -12 15 -50 15
-38 0 -50 -4 -50 -15z"/>
<path d="M150 165 c0 -12 13 -15 55 -15 42 0 55 3 55 15 0 12 -13 15 -55 15
-42 0 -55 -3 -55 -15z"/>
<path d="M290 165 c0 -11 12 -15 50 -15 38 0 50 4 50 15 0 11 -12 15 -50 15
-38 0 -50 -4 -50 -15z"/>
</g>
</svg>
