<?xml version="1.0" encoding="UTF-8"?>
<!DOCTYPE svg PUBLIC "-//W3C//DTD SVG 1.1//EN" "http://www.w3.org/Graphics/SVG/1.1/DTD/svg11.dtd">
<svg xmlns="http://www.w3.org/2000/svg" version="1.1" width="350px" height="382px" style="shape-rendering:geometricPrecision; text-rendering:geometricPrecision; image-rendering:optimizeQuality; fill-rule:evenodd; clip-rule:evenodd" xmlns:xlink="http://www.w3.org/1999/xlink">
<g><path style="opacity:0.024" fill="#fefffe" d="M 306.5,3.5 C 307.833,4.16667 307.833,4.16667 306.5,3.5 Z"/></g>
<g><path style="opacity:0.02" fill="#fefffe" d="M 144.5,14.5 C 145.773,15.0768 145.773,15.7435 144.5,16.5C 143.537,16.0302 143.537,15.3635 144.5,14.5 Z"/></g>
<g><path style="opacity:0.004" fill="#fefffe" d="M 148.5,15.5 C 149.833,16.1667 149.833,16.1667 148.5,15.5 Z"/></g>
<g><path style="opacity:0.795" fill="#f9f6e7" d="M 178.5,15.5 C 169.63,16.2191 160.63,16.8857 151.5,17.5C 151.611,16.8826 151.944,16.3826 152.5,16C 161.227,14.6365 169.894,14.4698 178.5,15.5 Z"/></g>
<g><path style="opacity:0.971" fill="#f1e29d" d="M 178.5,15.5 C 179.5,15.5 180.5,15.5 181.5,15.5C 184.171,16.2979 187.004,16.9646 190,17.5C 191.011,18.0556 191.844,18.7222 192.5,19.5C 192.769,23.9315 192.436,28.2648 191.5,32.5C 190.275,37.2895 189.608,42.2895 189.5,47.5C 188.713,61.484 186.713,75.1507 183.5,88.5C 182.404,90.1032 181.07,91.6032 179.5,93C 173.449,93.746 167.449,93.5793 161.5,92.5C 160.21,91.9423 159.377,90.9423 159,89.5C 158.174,86.2072 157.674,82.8738 157.5,79.5C 157.386,72.2392 156.386,65.2392 154.5,58.5C 154.276,54.8212 153.942,51.1545 153.5,47.5C 152.939,39.4493 151.939,31.4493 150.5,23.5C 150.672,21.4523 151.005,19.4523 151.5,17.5C 160.63,16.8857 169.63,16.2191 178.5,15.5 Z"/></g>
<g><path style="opacity:0.361" fill="#faf8f0" d="M 181.5,15.5 C 185.215,15.423 188.881,15.7564 192.5,16.5C 192.5,17.5 192.5,18.5 192.5,19.5C 191.844,18.7222 191.011,18.0556 190,17.5C 187.004,16.9646 184.171,16.2979 181.5,15.5 Z"/></g>
<g><path style="opacity:0.055" fill="#fefffe" d="M 210.5,16.5 C 211.525,16.8966 211.692,17.5632 211,18.5C 210.536,17.9056 210.369,17.2389 210.5,16.5 Z"/></g>
<g><path style="opacity:0.562" fill="#faf9f4" d="M 151.5,17.5 C 151.005,19.4523 150.672,21.4523 150.5,23.5C 151.939,31.4493 152.939,39.4493 153.5,47.5C 151.363,38.5254 149.697,29.5254 148.5,20.5C 149.188,19.1451 150.188,18.1451 151.5,17.5 Z"/></g>
<g><path style="opacity:1" fill="#f0bf27" d="M 153.5,18.5 C 165.747,18.1782 177.914,18.5115 190,19.5C 188.247,39.8573 185.914,60.1907 183,80.5C 183.554,89.4462 179.387,93.4462 170.5,92.5C 167.139,92.8881 164.306,91.8881 162,89.5C 158.457,67.4068 155.29,45.2401 152.5,23C 152.605,21.4085 152.939,19.9085 153.5,18.5 Z"/></g>
<g><path style="opacity:0.063" fill="#fefffe" d="M 204.5,24.5 C 205.833,25.1667 205.833,25.1667 204.5,24.5 Z"/></g>
<g><path style="opacity:0.976" fill="#f5ebbe" d="M 221.5,35.5 C 220.167,35.5 218.833,35.5 217.5,35.5C 213.047,34.072 208.547,32.7387 204,31.5C 201.98,32.0319 201.147,33.3652 201.5,35.5C 199.234,41.2168 197.568,47.2168 196.5,53.5C 196.876,46.7853 197.709,40.1186 199,33.5C 199.36,31.5789 200.194,29.9122 201.5,28.5C 208.622,29.2088 215.288,31.5421 221.5,35.5 Z"/></g>
<g><path style="opacity:0.167" fill="#fcfcfc" d="M 219.5,31.5 C 219.897,30.475 220.563,30.3083 221.5,31C 220.906,31.4643 220.239,31.631 219.5,31.5 Z"/></g>
<g><path style="opacity:1" fill="#f0bf27" d="M 189.5,98.5 C 191.746,96.3511 193.246,93.6844 194,90.5C 196.912,72.2017 199.412,53.8684 201.5,35.5C 201.147,33.3652 201.98,32.0319 204,31.5C 208.547,32.7387 213.047,34.072 217.5,35.5C 245.226,50.801 258.392,74.4677 257,106.5C 262.117,107.74 267.117,109.407 272,111.5C 272.667,115.167 272.667,118.833 272,122.5C 271.535,123.931 270.701,125.097 269.5,126C 204.167,126.667 138.833,126.667 73.5,126C 72.6667,125.167 71.8333,124.333 71,123.5C 70.3333,119.5 70.3333,115.5 71,111.5C 71.9025,110.299 73.0692,109.465 74.5,109C 78.0894,108.793 81.5894,108.293 85,107.5C 83.6839,78.97 94.5173,56.47 117.5,40C 123.945,36.193 130.778,33.3597 138,31.5C 139.326,31.7549 140.326,32.4216 141,33.5C 143.497,51.4774 145.831,69.4774 148,87.5C 150.597,100.104 158.264,105.771 171,104.5C 178.446,105.891 184.613,103.891 189.5,98.5 Z"/></g>
<g><path style="opacity:0.059" fill="#fefffe" d="M 232.5,35.5 C 233.833,36.1667 233.833,36.1667 232.5,35.5 Z"/></g>
<g><path style="opacity:0.446" fill="#fbfaf5" d="M 191.5,32.5 C 191.539,33.5832 191.873,34.5832 192.5,35.5C 191.489,39.6226 190.489,43.6226 189.5,47.5C 189.608,42.2895 190.275,37.2895 191.5,32.5 Z"/></g>
<g><path style="opacity:0.196" fill="#faf9f4" d="M 221.5,35.5 C 225.244,35.928 228.244,37.5947 230.5,40.5C 227.24,39.2262 224.24,37.5595 221.5,35.5 Z"/></g>
<g><path style="opacity:0.031" fill="#fefffe" d="M 231.5,38.5 C 232.833,39.1667 232.833,39.1667 231.5,38.5 Z"/></g>
<g><path style="opacity:0.749" fill="#f9f6e4" d="M 143.5,34.5 C 146.915,35.3956 147.248,36.8956 144.5,39C 145.322,41.4339 145.656,43.9339 145.5,46.5C 143.864,42.7905 143.198,38.7905 143.5,34.5 Z"/></g>
<g><path style="opacity:0.008" fill="#fbf9ef" d="M 231.5,41.5 C 234.167,42.1667 235.833,43.8333 236.5,46.5C 234.5,45.1667 232.833,43.5 231.5,41.5 Z"/></g>
<g><path style="opacity:0.387" fill="#faf9f3" d="M 111.5,41.5 C 107.031,45.4969 102.864,49.8302 99,54.5C 95.8087,59.5644 92.6421,64.5644 89.5,69.5C 90.031,66.763 90.8644,64.0964 92,61.5C 95.0535,58.1134 97.7202,54.4467 100,50.5C 103.728,47.2615 107.561,44.2615 111.5,41.5 Z"/></g>
<g><path style="opacity:0.106" fill="#faf9f2" d="M 237.5,46.5 C 240.261,47.5935 241.927,49.5935 242.5,52.5C 240.086,51.0892 238.419,49.0892 237.5,46.5 Z"/></g>
<g><path style="opacity:0.035" fill="#fdfdfd" d="M 250.5,58.5 C 252.225,58.8425 252.725,59.8425 252,61.5C 250.961,60.7562 250.461,59.7562 250.5,58.5 Z"/></g>
<g><path style="opacity:0.489" fill="#fbfaf8" d="M 250.5,63.5 C 255.5,70.1599 258.167,77.8266 258.5,86.5C 256.259,78.7796 253.592,71.113 250.5,63.5 Z"/></g>
<g><path style="opacity:0.035" fill="#fefffe" d="M 318.5,73.5 C 319.833,74.1667 319.833,74.1667 318.5,73.5 Z"/></g>
<g><path style="opacity:0.029" fill="#fefffe" d="M 330.5,79.5 C 331.289,79.7828 331.956,80.2828 332.5,81C 331.184,81.5281 330.517,81.0281 330.5,79.5 Z"/></g>
<g><path style="opacity:0.761" fill="#f8f4e3" d="M 88.5,72.5 C 87.7673,77.4449 86.434,82.1115 84.5,86.5C 84.8545,81.4495 86.1879,76.7829 88.5,72.5 Z"/></g>
<g><path style="opacity:0.394" fill="#fbfbf9" d="M 84.5,89.5 C 84.666,94.8437 84.4994,100.177 84,105.5C 83.3292,106.252 82.4959,106.586 81.5,106.5C 81.9528,105.542 82.6195,104.708 83.5,104C 82.8333,103.667 82.1667,103.333 81.5,103C 83.096,98.6217 84.096,94.1217 84.5,89.5 Z"/></g>
<g><path style="opacity:0.388" fill="#fefffe" d="M 55.5,90.5 C 56.5,90.5 57.5,90.5 58.5,90.5C 58.5,91.5 58.5,92.5 58.5,93.5C 55.4331,93.8795 54.4331,92.8795 55.5,90.5 Z"/></g>
<g><path style="opacity:0.525" fill="#f9f4df" d="M 259.5,103.5 C 263.458,105.044 267.458,106.378 271.5,107.5C 267.818,107.665 264.152,107.499 260.5,107C 259.663,105.989 259.33,104.822 259.5,103.5 Z"/></g>
<g><path style="opacity:0.954" fill="#f0e4a2" d="M 143.5,34.5 C 143.198,38.7905 143.864,42.7905 145.5,46.5C 145.5,47.8333 145.5,49.1667 145.5,50.5C 145.344,54.7643 146.011,58.7643 147.5,62.5C 147.852,65.4284 148.518,68.2617 149.5,71C 148.944,71.3826 148.611,71.8826 148.5,72.5C 148.251,76.4578 148.918,80.1244 150.5,83.5C 151.52,96.6827 158.687,103.016 172,102.5C 175.235,102.418 178.402,101.918 181.5,101C 184.665,98.6653 187.665,96.1653 190.5,93.5C 189.962,95.1172 189.629,96.7839 189.5,98.5C 184.613,103.891 178.446,105.891 171,104.5C 158.264,105.771 150.597,100.104 148,87.5C 145.831,69.4774 143.497,51.4774 141,33.5C 140.326,32.4216 139.326,31.7549 138,31.5C 130.778,33.3597 123.945,36.193 117.5,40C 94.5173,56.47 83.6839,78.97 85,107.5C 81.5894,108.293 78.0894,108.793 74.5,109C 73.0692,109.465 71.9025,110.299 71,111.5C 70.3333,115.5 70.3333,119.5 71,123.5C 71.8333,124.333 72.6667,125.167 73.5,126C 138.833,126.667 204.167,126.667 269.5,126C 270.701,125.097 271.535,123.931 272,122.5C 272.667,118.833 272.667,115.167 272,111.5C 267.117,109.407 262.117,107.74 257,106.5C 258.392,74.4677 245.226,50.801 217.5,35.5C 218.833,35.5 220.167,35.5 221.5,35.5C 224.24,37.5595 227.24,39.2262 230.5,40.5C 231.167,40.5 231.5,40.8333 231.5,41.5C 232.833,43.5 234.5,45.1667 236.5,46.5C 236.833,46.5 237.167,46.5 237.5,46.5C 238.419,49.0892 240.086,51.0892 242.5,52.5C 245.898,55.6267 248.565,59.2934 250.5,63.5C 253.592,71.113 256.259,78.7796 258.5,86.5C 259.489,91.9753 259.822,97.642 259.5,103.5C 259.33,104.822 259.663,105.989 260.5,107C 264.152,107.499 267.818,107.665 271.5,107.5C 274.852,109.714 276.185,112.881 275.5,117C 275.477,119.925 274.977,122.759 274,125.5C 273.583,126.756 272.75,127.423 271.5,127.5C 253.659,127.17 235.992,127.503 218.5,128.5C 189.5,128.5 160.5,128.5 131.5,128.5C 128.167,128.5 124.833,128.5 121.5,128.5C 105.175,127.824 88.8421,127.49 72.5,127.5C 69.6545,127.191 68.1545,125.525 68,122.5C 64.8352,110.506 69.3352,105.173 81.5,106.5C 82.4959,106.586 83.3292,106.252 84,105.5C 84.4994,100.177 84.666,94.8437 84.5,89.5C 84.5,88.5 84.5,87.5 84.5,86.5C 86.434,82.1115 87.7673,77.4449 88.5,72.5C 88.2627,71.209 88.596,70.209 89.5,69.5C 92.6421,64.5644 95.8087,59.5644 99,54.5C 102.864,49.8302 107.031,45.4969 111.5,41.5C 120.041,33.928 130.041,29.7613 141.5,29C 142.861,30.5843 143.528,32.4176 143.5,34.5 Z"/></g>
<g><path style="opacity:0.725" fill="#f6efcc" d="M 183.5,88.5 C 183.607,90.9032 182.607,92.7365 180.5,94C 176.034,94.4565 171.868,94.9565 168,95.5C 165.391,95.1625 163.224,94.1625 161.5,92.5C 167.449,93.5793 173.449,93.746 179.5,93C 181.07,91.6032 182.404,90.1032 183.5,88.5 Z"/></g>
<g><path style="opacity:0.029" fill="#faf7e6" d="M 193.5,82.5 C 193.706,85.4951 193.04,88.1617 191.5,90.5C 191.565,87.5718 192.232,84.9052 193.5,82.5 Z"/></g>
<g><path style="opacity:0.093" fill="#fdfcfa" d="M 148.5,72.5 C 149.687,75.9458 150.354,79.6125 150.5,83.5C 148.918,80.1244 148.251,76.4578 148.5,72.5 Z"/></g>
<g><path style="opacity:0.514" fill="#f8f4e0" d="M 154.5,58.5 C 156.386,65.2392 157.386,72.2392 157.5,79.5C 155.941,72.7141 154.941,65.7141 154.5,58.5 Z"/></g>
<g><path style="opacity:0.32" fill="#faf8ed" d="M 145.5,50.5 C 146.989,54.2357 147.656,58.2357 147.5,62.5C 146.011,58.7643 145.344,54.7643 145.5,50.5 Z"/></g>
<g><path style="opacity:0.412" fill="#faf9f1" d="M 196.5,54.5 C 196.414,60.94 195.747,67.2733 194.5,73.5C 193.903,73.2648 193.57,72.7648 193.5,72C 194.054,65.9592 195.054,60.1259 196.5,54.5 Z"/></g>
<g><path style="opacity:0.977" fill="#f0e29a" d="M 201.5,35.5 C 199.412,53.8684 196.912,72.2017 194,90.5C 193.246,93.6844 191.746,96.3511 189.5,98.5C 189.629,96.7839 189.962,95.1172 190.5,93.5C 190.557,92.391 190.89,91.391 191.5,90.5C 193.04,88.1617 193.706,85.4951 193.5,82.5C 192.887,79.5151 193.22,76.5151 194.5,73.5C 195.747,67.2733 196.414,60.94 196.5,54.5C 196.5,54.1667 196.5,53.8333 196.5,53.5C 197.568,47.2168 199.234,41.2168 201.5,35.5 Z"/></g>
<g><path style="opacity:0.752" fill="#f7f2d8" d="M 72.5,127.5 C 88.8421,127.49 105.175,127.824 121.5,128.5C 108.402,128.562 95.2356,128.895 82,129.5C 78.6499,129.054 75.4833,128.388 72.5,127.5 Z"/></g>
<g><path style="opacity:0.753" fill="#f8f4df" d="M 218.5,128.5 C 235.992,127.503 253.659,127.17 271.5,127.5C 268.45,128.935 265.117,129.602 261.5,129.5C 248.953,129.304 236.619,128.97 224.5,128.5C 222.5,128.5 220.5,128.5 218.5,128.5 Z"/></g>
<g><path style="opacity:0.463" fill="#fbfbfb" d="M 131.5,128.5 C 160.5,128.5 189.5,128.5 218.5,128.5C 220.5,128.5 222.5,128.5 224.5,128.5C 216.629,129.195 208.629,129.862 200.5,130.5C 177.372,129.843 154.372,129.176 131.5,128.5 Z"/></g>
<g><path style="opacity:0.585" fill="#f7f8f8" d="M 189.5,141.5 C 186.873,140.908 184.206,140.575 181.5,140.5C 172.896,138.805 164.562,139.805 156.5,143.5C 154.833,143.5 153.167,143.5 151.5,143.5C 154.865,141.538 158.532,140.038 162.5,139C 168.038,138.764 173.538,138.264 179,137.5C 181.464,138.161 183.964,138.661 186.5,139C 187.942,139.377 188.942,140.21 189.5,141.5 Z"/></g>
<g><path style="opacity:1" fill="#274c6e" d="M 181.5,140.5 C 187.867,142.912 194.534,144.579 201.5,145.5C 215.907,149.768 230.573,153.435 245.5,156.5C 257.542,160.26 269.876,163.26 282.5,165.5C 283.472,174.75 283.805,184.083 283.5,193.5C 284.791,193.737 285.791,193.404 286.5,192.5C 293.66,190.092 299.993,186.426 305.5,181.5C 309.338,180.316 311.338,177.649 311.5,173.5C 311.243,171.308 310.243,169.641 308.5,168.5C 308.027,167.094 307.027,166.427 305.5,166.5C 302.454,163.643 298.787,161.81 294.5,161C 290.246,159.686 285.913,158.853 281.5,158.5C 283.915,157.186 286.748,156.519 290,156.5C 296.552,156.746 303.052,157.413 309.5,158.5C 317.269,160.435 322.269,165.269 324.5,173C 324.025,176.737 322.858,180.237 321,183.5C 316.848,188.97 312.015,193.637 306.5,197.5C 303.071,198.381 300.071,200.048 297.5,202.5C 303.472,203.33 309.472,203.83 315.5,204C 318.336,204.921 321.002,206.088 323.5,207.5C 323.833,208.5 324.5,209.167 325.5,209.5C 327.956,215.465 327.956,221.465 325.5,227.5C 320.247,235.422 313.914,242.422 306.5,248.5C 286.6,262.288 265.6,274.288 243.5,284.5C 237.875,286.316 232.541,288.649 227.5,291.5C 215.668,295.591 204.001,299.925 192.5,304.5C 172.241,310.811 151.907,316.478 131.5,321.5C 126.256,321.882 121.256,322.882 116.5,324.5C 114.585,324.216 112.919,324.549 111.5,325.5C 98.3734,326.951 85.2067,327.951 72,328.5C 63.7676,328.511 55.6009,327.844 47.5,326.5C 30.526,321.229 26.3594,310.895 35,295.5C 44.8074,284.529 56.6408,277.029 70.5,273C 59.0486,279.451 49.882,288.284 43,299.5C 40.7266,309.734 44.8932,314.734 55.5,314.5C 60.9899,315.166 66.6565,315.499 72.5,315.5C 80.7263,315.698 88.7263,315.031 96.5,313.5C 98.5273,313.662 100.527,313.495 102.5,313C 102.957,312.586 103.291,312.086 103.5,311.5C 99.8079,305.436 96.1412,299.436 92.5,293.5C 91.0078,289.182 89.0078,285.182 86.5,281.5C 82.2405,271.13 78.9071,260.464 76.5,249.5C 80.5138,249.334 84.5138,249.501 88.5,250C 90.9065,250.257 92.5732,251.424 93.5,253.5C 93.9887,254.995 94.6554,256.329 95.5,257.5C 96.778,264.033 99.1113,270.033 102.5,275.5C 102.461,278.089 103.461,280.089 105.5,281.5C 105.461,284.089 106.461,286.089 108.5,287.5C 109.079,290.331 110.412,292.664 112.5,294.5C 113.569,296.969 114.902,299.302 116.5,301.5C 117.6,302.605 118.267,303.938 118.5,305.5C 119.689,309.33 122.022,310.33 125.5,308.5C 126.568,307.566 127.901,307.232 129.5,307.5C 132.781,307.58 135.781,306.913 138.5,305.5C 141.924,304.49 145.257,303.49 148.5,302.5C 154.086,300.877 159.753,299.543 165.5,298.5C 170.289,298.346 174.622,297.013 178.5,294.5C 181.505,292.723 184.838,291.723 188.5,291.5C 191.157,291.065 193.491,290.065 195.5,288.5C 196.833,287.833 198.167,287.167 199.5,286.5C 201.553,286.598 203.22,285.931 204.5,284.5C 205.959,284.567 207.292,284.234 208.5,283.5C 213.467,282.012 218.134,280.012 222.5,277.5C 223.492,277.672 224.158,277.338 224.5,276.5C 227.241,276.293 229.574,275.293 231.5,273.5C 232.609,273.443 233.609,273.11 234.5,272.5C 240.311,270.425 245.978,268.092 251.5,265.5C 254.297,265.033 255.631,263.367 255.5,260.5C 255.5,259.5 255.5,258.5 255.5,257.5C 256.404,256.791 256.737,255.791 256.5,254.5C 257.488,251.924 258.488,249.257 259.5,246.5C 260.913,243.781 261.58,240.781 261.5,237.5C 262.563,234.783 263.563,231.949 264.5,229C 269.337,226.912 274.337,225.412 279.5,224.5C 279.167,228.5 278.833,232.5 278.5,236.5C 277.087,239.219 276.42,242.219 276.5,245.5C 274.883,247.98 274.55,250.646 275.5,253.5C 284.684,248.41 293.351,242.577 301.5,236C 305.107,232.902 308.107,229.402 310.5,225.5C 310.833,224.5 311.5,223.833 312.5,223.5C 316.014,217.95 314.681,213.95 308.5,211.5C 307.432,210.566 306.099,210.232 304.5,210.5C 303.391,209.71 302.058,209.21 300.5,209C 293.833,208.333 287.167,208.333 280.5,209C 274.294,210.952 268.294,213.119 262.5,215.5C 257.562,216.231 252.895,217.565 248.5,219.5C 245.505,219.294 242.838,219.96 240.5,221.5C 237.303,221.405 234.303,222.072 231.5,223.5C 216.038,226.086 200.704,228.753 185.5,231.5C 149.93,235.251 114.264,236.418 78.5,235C 67.3826,234.236 56.3826,232.736 45.5,230.5C 38.3725,228.279 31.3725,225.446 24.5,222C 20.2595,219.262 16.9262,215.762 14.5,211.5C 13.8023,205.423 14.8023,199.756 17.5,194.5C 21.1464,192.183 24.4797,189.516 27.5,186.5C 37.4587,181.847 47.792,178.18 58.5,175.5C 59.1667,175.833 59.8333,176.167 60.5,176.5C 48.6627,180.666 38.1627,187 29,195.5C 24.1386,204.614 26.6386,210.781 36.5,214C 43.9209,216.939 51.5876,218.772 59.5,219.5C 62.6267,220.581 65.9601,221.247 69.5,221.5C 67.9012,202.877 67.2345,184.21 67.5,165.5C 81.4578,162.927 95.1245,159.593 108.5,155.5C 110.099,155.768 111.432,155.434 112.5,154.5C 119.466,153.579 126.133,151.912 132.5,149.5C 140.836,148.416 148.836,146.416 156.5,143.5C 164.687,141.371 173.02,140.371 181.5,140.5 Z"/></g>
<g><path style="opacity:0.792" fill="#8da4b3" d="M 181.5,140.5 C 173.02,140.371 164.687,141.371 156.5,143.5C 164.562,139.805 172.896,138.805 181.5,140.5 Z"/></g>
<g><path style="opacity:0.933" fill="#a0b3bf" d="M 181.5,140.5 C 184.206,140.575 186.873,140.908 189.5,141.5C 191.415,141.216 193.081,141.549 194.5,142.5C 196.888,143.349 199.221,144.349 201.5,145.5C 194.534,144.579 187.867,142.912 181.5,140.5 Z"/></g>
<g><path style="opacity:0.693" fill="#f5f7f7" d="M 194.5,142.5 C 202.907,143.119 211.241,144.286 219.5,146C 229.952,149.428 240.286,152.928 250.5,156.5C 248.833,156.5 247.167,156.5 245.5,156.5C 231.169,151.917 216.502,148.251 201.5,145.5C 199.221,144.349 196.888,143.349 194.5,142.5 Z"/></g>
<g><path style="opacity:0.827" fill="#a8bac5" d="M 151.5,143.5 C 153.167,143.5 154.833,143.5 156.5,143.5C 148.836,146.416 140.836,148.416 132.5,149.5C 136.217,148.32 139.884,146.987 143.5,145.5C 146.067,144.525 148.733,143.858 151.5,143.5 Z"/></g>
<g><path style="opacity:0.851" fill="#90a7b5" d="M 201.5,145.5 C 216.502,148.251 231.169,151.917 245.5,156.5C 230.573,153.435 215.907,149.768 201.5,145.5 Z"/></g>
<g><path style="opacity:0.544" fill="#f7f8f8" d="M 143.5,145.5 C 139.884,146.987 136.217,148.32 132.5,149.5C 131.167,149.5 129.833,149.5 128.5,149.5C 129.347,148.034 130.68,147.2 132.5,147C 136.17,146.452 139.837,145.952 143.5,145.5 Z"/></g>
<g><path style="opacity:0.918" fill="#9bb0bc" d="M 128.5,149.5 C 129.833,149.5 131.167,149.5 132.5,149.5C 126.133,151.912 119.466,153.579 112.5,154.5C 116.116,153.013 119.783,151.68 123.5,150.5C 124.919,149.549 126.585,149.216 128.5,149.5 Z"/></g>
<g><path style="opacity:0.541" fill="#fbfbfb" d="M 301.5,155.5 C 295.167,155.5 288.833,155.5 282.5,155.5C 284.586,154.391 286.92,153.724 289.5,153.5C 293.678,153.956 297.678,154.623 301.5,155.5 Z"/></g>
<g><path style="opacity:0.33" fill="#ecf0f1" d="M 123.5,150.5 C 119.783,151.68 116.116,153.013 112.5,154.5C 111.432,155.434 110.099,155.768 108.5,155.5C 102.805,156.34 97.1387,157.34 91.5,158.5C 91.6107,157.883 91.944,157.383 92.5,157C 102.88,154.926 113.213,152.759 123.5,150.5 Z"/></g>
<g><path style="opacity:0.776" fill="#aabcc6" d="M 282.5,155.5 C 288.833,155.5 295.167,155.5 301.5,155.5C 301.833,155.5 302.167,155.5 302.5,155.5C 304.975,156.131 307.309,157.131 309.5,158.5C 303.052,157.413 296.552,156.746 290,156.5C 286.748,156.519 283.915,157.186 281.5,158.5C 280.833,158.5 280.167,158.5 279.5,158.5C 277.972,158.483 277.472,157.816 278,156.5C 279.356,155.62 280.856,155.286 282.5,155.5 Z"/></g>
<g><path style="opacity:0.643" fill="#8aa0ac" d="M 178.5,156.5 C 176.265,156.205 174.265,156.539 172.5,157.5C 170.5,157.833 168.5,158.167 166.5,158.5C 165.833,158.5 165.167,158.5 164.5,158.5C 168.964,155.888 173.63,155.221 178.5,156.5 Z"/></g>
<g><path style="opacity:1" fill="#efbf27" d="M 172.5,157.5 C 176.064,158.423 179.731,158.756 183.5,158.5C 184.5,158.5 185.5,158.5 186.5,158.5C 188.838,160.04 191.505,160.706 194.5,160.5C 196.302,161.458 198.302,162.125 200.5,162.5C 208.719,166.057 217.386,168.39 226.5,169.5C 227.167,169.5 227.833,169.5 228.5,169.5C 234.048,172.39 240.048,174.057 246.5,174.5C 250.2,176.245 254.2,177.245 258.5,177.5C 260.5,177.833 262.5,178.167 264.5,178.5C 266.299,182.903 266.966,187.57 266.5,192.5C 266.5,192.833 266.5,193.167 266.5,193.5C 265.71,194.609 265.21,195.942 265,197.5C 263.482,198.163 262.315,199.163 261.5,200.5C 260.609,201.11 259.609,201.443 258.5,201.5C 255.351,201.415 252.684,202.415 250.5,204.5C 248.565,205.15 246.565,205.483 244.5,205.5C 241.505,205.294 238.838,205.96 236.5,207.5C 236.167,207.5 235.833,207.5 235.5,207.5C 231.655,207.288 228.321,208.288 225.5,210.5C 224.167,210.5 222.833,210.5 221.5,210.5C 217.878,210.322 214.544,210.989 211.5,212.5C 207.267,212.539 203.267,213.205 199.5,214.5C 187.589,215.344 175.922,217.011 164.5,219.5C 162.833,219.5 161.167,219.5 159.5,219.5C 148.617,219.144 137.951,219.81 127.5,221.5C 115.803,222.814 104.137,222.814 92.5,221.5C 90.9087,220.781 89.4087,219.781 88,218.5C 87.1557,213.624 85.989,208.957 84.5,204.5C 84.5,203.167 84.5,201.833 84.5,200.5C 84.3338,194.158 84.5005,187.825 85,181.5C 85.8333,180.667 86.6667,179.833 87.5,179C 94.1667,177.333 100.833,175.667 107.5,174C 108.056,173.617 108.389,173.117 108.5,172.5C 109.167,172.5 109.833,172.5 110.5,172.5C 115.192,172.575 119.526,171.575 123.5,169.5C 131.521,168.388 139.187,166.388 146.5,163.5C 147.167,163.5 147.833,163.5 148.5,163.5C 154.177,162.499 159.843,161.332 165.5,160C 166.056,159.617 166.389,159.117 166.5,158.5C 168.5,158.167 170.5,157.833 172.5,157.5 Z"/></g>
<g><path style="opacity:0.798" fill="#e8d98e" d="M 172.5,157.5 C 174.265,156.539 176.265,156.205 178.5,156.5C 180.167,157.167 181.833,157.833 183.5,158.5C 179.731,158.756 176.064,158.423 172.5,157.5 Z"/></g>
<g><path style="opacity:0.48" fill="#dbe2e6" d="M 302.5,155.5 C 309.229,155.933 315.562,157.766 321.5,161C 323.894,162.952 325.394,165.452 326,168.5C 326.496,173.208 326.162,177.875 325,182.5C 321,187.833 316.333,192.5 311,196.5C 310.51,197.793 310.343,199.127 310.5,200.5C 321.403,200.911 327.736,206.411 329.5,217C 329.494,219.033 329.161,220.866 328.5,222.5C 328.665,219.482 328.498,216.482 328,213.5C 327.8,211.68 326.966,210.347 325.5,209.5C 324.5,209.167 323.833,208.5 323.5,207.5C 321.88,205.016 319.547,203.516 316.5,203C 311.547,202.005 306.547,201.338 301.5,201C 303.584,200.303 305.251,199.136 306.5,197.5C 312.015,193.637 316.848,188.97 321,183.5C 322.858,180.237 324.025,176.737 324.5,173C 322.269,165.269 317.269,160.435 309.5,158.5C 307.309,157.131 304.975,156.131 302.5,155.5 Z"/></g>
<g><path style="opacity:0.753" fill="#92a5a8" d="M 186.5,158.5 C 189.428,158.565 192.095,159.232 194.5,160.5C 191.505,160.706 188.838,160.04 186.5,158.5 Z"/></g>
<g><path style="opacity:0.91" fill="#acbdc7" d="M 108.5,155.5 C 95.1245,159.593 81.4578,162.927 67.5,165.5C 69.8876,164.651 72.2209,163.651 74.5,162.5C 80.0342,160.7 85.7009,159.367 91.5,158.5C 97.1387,157.34 102.805,156.34 108.5,155.5 Z"/></g>
<g><path style="opacity:0.467" fill="#f5f6f7" d="M 262.5,159.5 C 268.599,159.406 274.265,160.739 279.5,163.5C 273.612,162.659 267.945,161.326 262.5,159.5 Z"/></g>
<g><path style="opacity:0.984" fill="#9bb0bc" d="M 281.5,158.5 C 285.913,158.853 290.246,159.686 294.5,161C 298.787,161.81 302.454,163.643 305.5,166.5C 302.594,165.213 299.594,164.213 296.5,163.5C 295.209,163.737 294.209,163.404 293.5,162.5C 289.409,161.476 285.409,160.143 281.5,158.5 Z"/></g>
<g><path style="opacity:0.867" fill="#9bb0bc" d="M 245.5,156.5 C 247.167,156.5 248.833,156.5 250.5,156.5C 254.947,157.234 258.947,158.234 262.5,159.5C 267.945,161.326 273.612,162.659 279.5,163.5C 281.205,164.535 282.872,164.535 284.5,163.5C 285.298,163.957 285.631,164.624 285.5,165.5C 284.5,165.5 283.5,165.5 282.5,165.5C 269.876,163.26 257.542,160.26 245.5,156.5 Z"/></g>
<g><path style="opacity:0.155" fill="#f5f6f7" d="M 279.5,158.5 C 280.167,158.5 280.833,158.5 281.5,158.5C 285.409,160.143 289.409,161.476 293.5,162.5C 290.629,162.963 287.796,162.963 285,162.5C 283.02,161.251 281.187,159.918 279.5,158.5 Z"/></g>
<g><path style="opacity:0.98" fill="#e3d185" d="M 164.5,158.5 C 165.167,158.5 165.833,158.5 166.5,158.5C 166.389,159.117 166.056,159.617 165.5,160C 159.843,161.332 154.177,162.499 148.5,163.5C 150.888,162.651 153.221,161.651 155.5,160.5C 158.454,159.729 161.454,159.062 164.5,158.5 Z"/></g>
<g><path style="opacity:0.812" fill="#8aa0a8" d="M 155.5,160.5 C 153.221,161.651 150.888,162.651 148.5,163.5C 147.833,163.5 147.167,163.5 146.5,163.5C 145.833,163.5 145.167,163.5 144.5,163.5C 147.854,161.742 151.521,160.742 155.5,160.5 Z"/></g>
<g><path style="opacity:0.808" fill="#d5ce99" d="M 144.5,163.5 C 145.167,163.5 145.833,163.5 146.5,163.5C 139.187,166.388 131.521,168.388 123.5,169.5C 124.6,168.442 125.934,167.608 127.5,167C 133.243,166.07 138.909,164.904 144.5,163.5 Z"/></g>
<g><path style="opacity:0.931" fill="#ead988" d="M 200.5,162.5 C 209.364,164.547 218.031,166.881 226.5,169.5C 217.386,168.39 208.719,166.057 200.5,162.5 Z"/></g>
<g><path style="opacity:0.768" fill="#6f8b9f" d="M 282.5,165.5 C 283.5,165.5 284.5,165.5 285.5,165.5C 285.5,165.833 285.5,166.167 285.5,166.5C 284.343,174.656 284.177,182.99 285,191.5C 285.383,192.056 285.883,192.389 286.5,192.5C 285.791,193.404 284.791,193.737 283.5,193.5C 283.805,184.083 283.472,174.75 282.5,165.5 Z"/></g>
<g><path style="opacity:0.685" fill="#eff2f3" d="M 296.5,163.5 C 299.594,164.213 302.594,165.213 305.5,166.5C 307.027,166.427 308.027,167.094 308.5,168.5C 310.536,173.628 309.536,177.961 305.5,181.5C 302.833,182.833 300.167,184.167 297.5,185.5C 299.813,182.194 302.813,179.527 306.5,177.5C 307.927,174.467 307.594,171.634 305.5,169C 302.436,167.141 299.436,165.308 296.5,163.5 Z"/></g>
<g><path style="opacity:0.951" fill="#e7db98" d="M 123.5,169.5 C 119.526,171.575 115.192,172.575 110.5,172.5C 114.59,170.925 118.923,169.925 123.5,169.5 Z"/></g>
<g><path style="opacity:0.871" fill="#e8d98c" d="M 228.5,169.5 C 234.792,170.57 240.792,172.236 246.5,174.5C 240.048,174.057 234.048,172.39 228.5,169.5 Z"/></g>
<g><path style="opacity:0.965" fill="#ebdd93" d="M 246.5,174.5 C 250.524,175.038 254.524,175.705 258.5,176.5C 258.5,176.833 258.5,177.167 258.5,177.5C 254.2,177.245 250.2,176.245 246.5,174.5 Z"/></g>
<g><path style="opacity:0.765" fill="#9fafab" d="M 258.5,177.5 C 258.5,177.167 258.5,176.833 258.5,176.5C 261.428,176.565 264.095,177.232 266.5,178.5C 265.833,178.5 265.167,178.5 264.5,178.5C 262.5,178.167 260.5,177.833 258.5,177.5 Z"/></g>
<g><path style="opacity:0.894" fill="#dcd59a" d="M 108.5,172.5 C 108.389,173.117 108.056,173.617 107.5,174C 100.833,175.667 94.1667,177.333 87.5,179C 86.6667,179.833 85.8333,180.667 85,181.5C 84.5005,187.825 84.3338,194.158 84.5,200.5C 83.5655,199.432 83.2322,198.099 83.5,196.5C 83.334,191.156 83.5006,185.823 84,180.5C 84.6979,179.309 85.5313,178.309 86.5,177.5C 93.6201,175.222 100.953,173.555 108.5,172.5 Z"/></g>
<g><path style="opacity:0.997" fill="#8aa2b0" d="M 86.5,177.5 C 85.5313,178.309 84.6979,179.309 84,180.5C 83.5006,185.823 83.334,191.156 83.5,196.5C 82.3475,190.681 82.1808,184.681 83,178.5C 84.0113,177.663 85.1779,177.33 86.5,177.5 Z"/></g>
<g><path style="opacity:0.816" fill="#7f98a9" d="M 308.5,168.5 C 310.243,169.641 311.243,171.308 311.5,173.5C 311.338,177.649 309.338,180.316 305.5,181.5C 309.536,177.961 310.536,173.628 308.5,168.5 Z"/></g>
<g><path style="opacity:0.996" fill="#ebde96" d="M 264.5,178.5 C 265.167,178.5 265.833,178.5 266.5,178.5C 267.797,183.267 267.797,187.934 266.5,192.5C 266.966,187.57 266.299,182.903 264.5,178.5 Z"/></g>
<g><path style="opacity:0.757" fill="#dbe2e6" d="M 74.5,162.5 C 72.2209,163.651 69.8876,164.651 67.5,165.5C 66.5051,176.988 66.1717,188.655 66.5,200.5C 65.1526,196.578 64.4859,192.411 64.5,188C 65.3213,180.285 65.6546,172.452 65.5,164.5C 68.333,163.067 71.333,162.4 74.5,162.5 Z"/></g>
<g><path style="opacity:0.776" fill="#e7ebed" d="M 30.5,183.5 C 29.3065,184.272 28.3065,185.272 27.5,186.5C 24.4797,189.516 21.1464,192.183 17.5,194.5C 13.3226,198.201 11.8226,202.868 13,208.5C 13.2321,209.737 13.7321,210.737 14.5,211.5C 16.9262,215.762 20.2595,219.262 24.5,222C 31.3725,225.446 38.3725,228.279 45.5,230.5C 54.6329,233.474 63.9662,235.474 73.5,236.5C 54.9906,236.396 37.3239,232.23 20.5,224C 4.86603,211.078 4.86603,198.411 20.5,186C 23.4998,183.997 26.8331,183.164 30.5,183.5 Z"/></g>
<g><path style="opacity:0.894" fill="#bdcad2" d="M 64.5,219.5 C 62.8333,219.5 61.1667,219.5 59.5,219.5C 51.5876,218.772 43.9209,216.939 36.5,214C 26.6386,210.781 24.1386,204.614 29,195.5C 38.1627,187 48.6627,180.666 60.5,176.5C 59.8333,176.167 59.1667,175.833 58.5,175.5C 47.792,178.18 37.4587,181.847 27.5,186.5C 28.3065,185.272 29.3065,184.272 30.5,183.5C 34.2136,180.31 38.5469,178.143 43.5,177C 49.2973,175.967 54.964,174.467 60.5,172.5C 62.3027,174.205 62.9694,176.038 62.5,178C 54.3248,181.616 46.3248,185.616 38.5,190C 36.3171,192.35 33.9837,194.517 31.5,196.5C 30.209,198.871 29.209,201.371 28.5,204C 30.943,208.438 34.6096,211.438 39.5,213C 48.009,215.125 56.3424,217.292 64.5,219.5 Z"/></g>
<g><path style="opacity:0.795" fill="#8ba0a6" d="M 266.5,178.5 C 267.814,180.915 268.481,183.748 268.5,187C 268.674,191.442 268.007,195.609 266.5,199.5C 266.5,197.5 266.5,195.5 266.5,193.5C 266.5,193.167 266.5,192.833 266.5,192.5C 267.797,187.934 267.797,183.267 266.5,178.5 Z"/></g>
<g><path style="opacity:0.634" fill="#ced7dd" d="M 285.5,166.5 C 285.895,173.087 286.061,179.753 286,186.5C 287.085,187.293 288.252,187.96 289.5,188.5C 292.188,187.487 294.854,186.487 297.5,185.5C 300.167,184.167 302.833,182.833 305.5,181.5C 299.993,186.426 293.66,190.092 286.5,192.5C 285.883,192.389 285.383,192.056 285,191.5C 284.177,182.99 284.343,174.656 285.5,166.5 Z"/></g>
<g><path style="opacity:0.898" fill="#93a9b6" d="M 67.5,165.5 C 67.2345,184.21 67.9012,202.877 69.5,221.5C 65.9601,221.247 62.6267,220.581 59.5,219.5C 61.1667,219.5 62.8333,219.5 64.5,219.5C 64.8333,219.5 65.1667,219.5 65.5,219.5C 66.5,219.5 67.5,219.5 68.5,219.5C 68.0297,213.794 67.363,208.127 66.5,202.5C 66.5,201.833 66.5,201.167 66.5,200.5C 66.1717,188.655 66.5051,176.988 67.5,165.5 Z"/></g>
<g><path style="opacity:1" fill="#eddf93" d="M 266.5,193.5 C 266.5,195.5 266.5,197.5 266.5,199.5C 265.508,199.328 264.842,199.662 264.5,200.5C 263.5,200.5 262.5,200.5 261.5,200.5C 262.315,199.163 263.482,198.163 265,197.5C 265.21,195.942 265.71,194.609 266.5,193.5 Z"/></g>
<g><path style="opacity:0.824" fill="#98aeba" d="M 17.5,194.5 C 14.8023,199.756 13.8023,205.423 14.5,211.5C 13.7321,210.737 13.2321,209.737 13,208.5C 11.8226,202.868 13.3226,198.201 17.5,194.5 Z"/></g>
<g><path style="opacity:0.979" fill="#94aab7" d="M 306.5,197.5 C 305.251,199.136 303.584,200.303 301.5,201C 306.547,201.338 311.547,202.005 316.5,203C 319.547,203.516 321.88,205.016 323.5,207.5C 321.002,206.088 318.336,204.921 315.5,204C 309.472,203.83 303.472,203.33 297.5,202.5C 300.071,200.048 303.071,198.381 306.5,197.5 Z"/></g>
<g><path style="opacity:0.855" fill="#768f9f" d="M 261.5,200.5 C 262.5,200.5 263.5,200.5 264.5,200.5C 261.855,202.31 258.855,203.31 255.5,203.5C 256.5,202.833 257.5,202.167 258.5,201.5C 259.609,201.443 260.609,201.11 261.5,200.5 Z"/></g>
<g><path style="opacity:0.761" fill="#bcbfa2" d="M 258.5,201.5 C 257.5,202.167 256.5,202.833 255.5,203.5C 253.958,204.301 252.292,204.634 250.5,204.5C 252.684,202.415 255.351,201.415 258.5,201.5 Z"/></g>
<g><path style="opacity:0.004" fill="#fefffe" d="M 32.5,206.5 C 33.8333,207.167 33.8333,207.167 32.5,206.5 Z"/></g>
<g><path style="opacity:0.929" fill="#e9dc95" d="M 244.5,205.5 C 242.972,206.309 241.306,206.976 239.5,207.5C 238.5,207.5 237.5,207.5 236.5,207.5C 238.838,205.96 241.505,205.294 244.5,205.5 Z"/></g>
<g><path style="opacity:0.839" fill="#e3d388" d="M 235.5,207.5 C 234.5,208.167 233.5,208.833 232.5,209.5C 230.097,209.448 227.764,209.781 225.5,210.5C 228.321,208.288 231.655,207.288 235.5,207.5 Z"/></g>
<g><path style="opacity:0.78" fill="#7d95a3" d="M 235.5,207.5 C 235.833,207.5 236.167,207.5 236.5,207.5C 237.5,207.5 238.5,207.5 239.5,207.5C 237.485,208.924 235.152,209.59 232.5,209.5C 233.5,208.833 234.5,208.167 235.5,207.5 Z"/></g>
<g><path style="opacity:0.932" fill="#e4d999" d="M 84.5,204.5 C 85.989,208.957 87.1557,213.624 88,218.5C 89.4087,219.781 90.9087,220.781 92.5,221.5C 89.3247,222.091 86.9913,221.091 85.5,218.5C 85.4599,213.807 85.1266,209.141 84.5,204.5 Z"/></g>
<g><path style="opacity:0.89" fill="#ecdc8c" d="M 221.5,210.5 C 218.411,211.785 215.078,212.451 211.5,212.5C 214.544,210.989 217.878,210.322 221.5,210.5 Z"/></g>
<g><path style="opacity:0.431" fill="#9fb4bf" d="M 304.5,210.5 C 296.68,209.335 289.013,209.335 281.5,210.5C 276.382,212.537 271.049,214.204 265.5,215.5C 264.5,215.5 263.5,215.5 262.5,215.5C 268.294,213.119 274.294,210.952 280.5,209C 287.167,208.333 293.833,208.333 300.5,209C 302.058,209.21 303.391,209.71 304.5,210.5 Z"/></g>
<g><path style="opacity:0.004" fill="#fefffe" d="M 51.5,212.5 C 52.8333,213.167 52.8333,213.167 51.5,212.5 Z"/></g>
<g><path style="opacity:0.907" fill="#ecdc8f" d="M 211.5,212.5 C 211.5,212.833 211.5,213.167 211.5,213.5C 207.519,214.021 203.519,214.354 199.5,214.5C 203.267,213.205 207.267,212.539 211.5,212.5 Z"/></g>
<g><path style="opacity:0.714" fill="#f2f4f5" d="M 281.5,210.5 C 289.013,209.335 296.68,209.335 304.5,210.5C 306.099,210.232 307.432,210.566 308.5,211.5C 309.793,213.296 311.293,214.963 313,216.5C 313.334,218.847 313.167,221.181 312.5,223.5C 311.5,223.833 310.833,224.5 310.5,225.5C 310.167,225.5 309.833,225.5 309.5,225.5C 309.67,223.152 310.003,220.818 310.5,218.5C 310.61,216.626 309.944,215.126 308.5,214C 299.748,211.049 290.748,209.882 281.5,210.5 Z"/></g>
<g><path style="opacity:0.886" fill="#6e8799" d="M 211.5,213.5 C 207.089,215.13 202.422,216.13 197.5,216.5C 198.167,215.833 198.833,215.167 199.5,214.5C 203.519,214.354 207.519,214.021 211.5,213.5 Z"/></g>
<g><path style="opacity:0.566" fill="#fafafa" d="M 66.5,202.5 C 67.363,208.127 68.0297,213.794 68.5,219.5C 67.5,219.5 66.5,219.5 65.5,219.5C 66.1408,218.518 66.8075,217.518 67.5,216.5C 66.801,212.349 66.1343,208.182 65.5,204C 65.5699,203.235 65.9033,202.735 66.5,202.5 Z"/></g>
<g><path style="opacity:0.88" fill="#a1b5c0" d="M 325.5,209.5 C 326.966,210.347 327.8,211.68 328,213.5C 328.498,216.482 328.665,219.482 328.5,222.5C 328.737,223.791 328.404,224.791 327.5,225.5C 326.833,226.167 326.167,226.833 325.5,227.5C 327.956,221.465 327.956,215.465 325.5,209.5 Z"/></g>
<g><path style="opacity:0.851" fill="#97acb9" d="M 262.5,215.5 C 258.206,217.816 253.54,219.15 248.5,219.5C 252.895,217.565 257.562,216.231 262.5,215.5 Z"/></g>
<g><path style="opacity:0.792" fill="#e4d995" d="M 199.5,214.5 C 198.833,215.167 198.167,215.833 197.5,216.5C 186.493,217.417 175.493,218.417 164.5,219.5C 175.922,217.011 187.589,215.344 199.5,214.5 Z"/></g>
<g><path style="opacity:0.718" fill="#90a7b5" d="M 308.5,211.5 C 314.681,213.95 316.014,217.95 312.5,223.5C 313.167,221.181 313.334,218.847 313,216.5C 311.293,214.963 309.793,213.296 308.5,211.5 Z"/></g>
<g><path style="opacity:0.528" fill="#e9edef" d="M 262.5,215.5 C 263.5,215.5 264.5,215.5 265.5,215.5C 253.758,220.589 241.425,223.923 228.5,225.5C 229.5,224.833 230.5,224.167 231.5,223.5C 234.303,222.072 237.303,221.405 240.5,221.5C 243.428,221.435 246.095,220.768 248.5,219.5C 253.54,219.15 258.206,217.816 262.5,215.5 Z"/></g>
<g><path style="opacity:0.965" fill="#eddb86" d="M 159.5,219.5 C 159.5,220.167 159.167,220.5 158.5,220.5C 148.168,220.875 137.835,221.208 127.5,221.5C 137.951,219.81 148.617,219.144 159.5,219.5 Z"/></g>
<g><path style="opacity:0.91" fill="#8da5b3" d="M 248.5,219.5 C 246.095,220.768 243.428,221.435 240.5,221.5C 242.838,219.96 245.505,219.294 248.5,219.5 Z"/></g>
<g><path style="opacity:0.839" fill="#8fa4ae" d="M 85.5,218.5 C 86.9913,221.091 89.3247,222.091 92.5,221.5C 104.137,222.814 115.803,222.814 127.5,221.5C 137.835,221.208 148.168,220.875 158.5,220.5C 142.716,222.444 126.716,223.444 110.5,223.5C 102.456,223.555 94.4558,223.055 86.5,222C 85.6634,220.989 85.33,219.822 85.5,218.5 Z"/></g>
<g><path style="opacity:0.878" fill="#98adb7" d="M 279.5,222.5 C 280.586,222.62 281.253,223.287 281.5,224.5C 280.735,228.69 279.735,232.69 278.5,236.5C 278.833,232.5 279.167,228.5 279.5,224.5C 274.337,225.412 269.337,226.912 264.5,229C 263.563,231.949 262.563,234.783 261.5,237.5C 261.368,234.43 261.701,231.43 262.5,228.5C 264.574,227.486 266.574,226.486 268.5,225.5C 272.096,224.613 275.762,223.613 279.5,222.5 Z"/></g>
<g><path style="opacity:0.58" fill="#adbec8" d="M 231.5,223.5 C 230.5,224.167 229.5,224.833 228.5,225.5C 219.478,228.598 210.145,230.264 200.5,230.5C 195.507,230.916 190.507,231.249 185.5,231.5C 200.704,228.753 216.038,226.086 231.5,223.5 Z"/></g>
<g><path style="opacity:0.571" fill="#fafaf8" d="M 268.5,225.5 C 266.574,226.486 264.574,227.486 262.5,228.5C 253.843,230.164 245.177,231.83 236.5,233.5C 246.698,229.455 257.365,226.788 268.5,225.5 Z"/></g>
<g><path style="opacity:0.983" fill="#efe199" d="M 262.5,228.5 C 261.701,231.43 261.368,234.43 261.5,237.5C 261.167,237.5 260.833,237.5 260.5,237.5C 260.5,235.5 260.5,233.5 260.5,231.5C 230.218,238.825 199.551,244.325 168.5,248C 144.208,250.116 119.875,251.283 95.5,251.5C 95.5,253.5 95.5,255.5 95.5,257.5C 94.6554,256.329 93.9887,254.995 93.5,253.5C 93.5674,252.041 93.2341,250.708 92.5,249.5C 141.206,250.629 189.206,245.296 236.5,233.5C 245.177,231.83 253.843,230.164 262.5,228.5 Z"/></g>
<g><path style="opacity:1" fill="#efbf29" d="M 260.5,237.5 C 260.483,239.565 260.15,241.565 259.5,243.5C 257.517,246.799 256.517,250.466 256.5,254.5C 256.737,255.791 256.404,256.791 255.5,257.5C 254.217,259.868 252.55,262.035 250.5,264C 244.926,266.565 239.593,269.398 234.5,272.5C 233.609,273.11 232.609,273.443 231.5,273.5C 228.759,273.707 226.426,274.707 224.5,276.5C 224.158,277.338 223.492,277.672 222.5,277.5C 217.28,278.449 212.614,280.449 208.5,283.5C 207.292,284.234 205.959,284.567 204.5,284.5C 202.447,284.402 200.78,285.069 199.5,286.5C 198.167,287.167 196.833,287.833 195.5,288.5C 193.035,288.767 190.701,289.434 188.5,290.5C 183.656,290.436 179.322,291.769 175.5,294.5C 175.167,294.5 174.833,294.5 174.5,294.5C 171.458,294.733 168.792,295.733 166.5,297.5C 165.833,297.5 165.5,297.833 165.5,298.5C 159.753,299.543 154.086,300.877 148.5,302.5C 144.076,302.272 140.076,303.272 136.5,305.5C 134.139,305.674 131.806,306.007 129.5,306.5C 127.143,306.663 124.81,306.497 122.5,306C 120.587,304.276 118.587,302.776 116.5,301.5C 114.902,299.302 113.569,296.969 112.5,294.5C 111.921,291.669 110.588,289.336 108.5,287.5C 108.008,285.181 107.008,283.181 105.5,281.5C 105.008,279.181 104.008,277.181 102.5,275.5C 99.1113,270.033 96.778,264.033 95.5,257.5C 95.5,255.5 95.5,253.5 95.5,251.5C 119.875,251.283 144.208,250.116 168.5,248C 199.551,244.325 230.218,238.825 260.5,231.5C 260.5,233.5 260.5,235.5 260.5,237.5 Z"/></g>
<g><path style="opacity:0.58" fill="#f3f5f6" d="M 200.5,230.5 C 191.417,232.71 182.084,234.043 172.5,234.5C 176.907,233.861 181.241,232.861 185.5,231.5C 190.507,231.249 195.507,230.916 200.5,230.5 Z"/></g>
<g><path style="opacity:0.749" fill="#b2c2cb" d="M 309.5,225.5 C 309.833,225.5 310.167,225.5 310.5,225.5C 308.107,229.402 305.107,232.902 301.5,236C 293.351,242.577 284.684,248.41 275.5,253.5C 274.55,250.646 274.883,247.98 276.5,245.5C 276.254,247.78 276.254,249.78 276.5,251.5C 279.154,250.164 281.487,248.497 283.5,246.5C 286.947,243.731 290.614,241.231 294.5,239C 299.624,234.52 304.624,230.02 309.5,225.5 Z"/></g>
<g><path style="opacity:0.948" fill="#95aab8" d="M 45.5,230.5 C 56.3826,232.736 67.3826,234.236 78.5,235C 114.264,236.418 149.93,235.251 185.5,231.5C 181.241,232.861 176.907,233.861 172.5,234.5C 168.936,235.423 165.269,235.756 161.5,235.5C 132.844,236.392 104.178,236.725 75.5,236.5C 74.8333,236.5 74.1667,236.5 73.5,236.5C 63.9662,235.474 54.6329,233.474 45.5,230.5 Z"/></g>
<g><path style="opacity:0.753" fill="#d8dfe4" d="M 161.5,235.5 C 159.369,236.314 157.036,236.814 154.5,237C 140.179,237.848 125.846,238.348 111.5,238.5C 99.3004,238.622 87.3004,237.955 75.5,236.5C 104.178,236.725 132.844,236.392 161.5,235.5 Z"/></g>
<g><path style="opacity:0.595" fill="#f9f8f3" d="M 236.5,233.5 C 189.206,245.296 141.206,250.629 92.5,249.5C 86.5,248.167 80.5,248.167 74.5,249.5C 73.6676,248.671 74.001,247.838 75.5,247C 76.6667,246.833 77.8333,246.667 79,246.5C 107.842,247.973 137.008,247.473 166.5,245C 189.897,241.353 213.23,237.519 236.5,233.5 Z"/></g>
<g><path style="opacity:0.804" fill="#91a8b6" d="M 278.5,236.5 C 278.58,239.781 277.913,242.781 276.5,245.5C 276.42,242.219 277.087,239.219 278.5,236.5 Z"/></g>
<g><path style="opacity:0.8" fill="#9daeac" d="M 260.5,237.5 C 260.833,237.5 261.167,237.5 261.5,237.5C 261.58,240.781 260.913,243.781 259.5,246.5C 259.5,245.5 259.5,244.5 259.5,243.5C 260.15,241.565 260.483,239.565 260.5,237.5 Z"/></g>
<g><path style="opacity:0.664" fill="#f5f6f7" d="M 279.5,222.5 C 281.684,221.017 283.017,221.684 283.5,224.5C 281.473,232.424 279.807,240.091 278.5,247.5C 280.216,247.371 281.883,247.038 283.5,246.5C 281.487,248.497 279.154,250.164 276.5,251.5C 276.254,249.78 276.254,247.78 276.5,245.5C 277.913,242.781 278.58,239.781 278.5,236.5C 279.735,232.69 280.735,228.69 281.5,224.5C 281.253,223.287 280.586,222.62 279.5,222.5 Z"/></g>
<g><path style="opacity:0.012" fill="#fefffe" d="M 68.5,246.5 C 69.8333,247.167 69.8333,247.167 68.5,246.5 Z"/></g>
<g><path style="opacity:0.417" fill="#e0e6e9" d="M 327.5,225.5 C 323.417,237.92 315.417,246.92 303.5,252.5C 304.5,251.167 305.5,249.833 306.5,248.5C 313.914,242.422 320.247,235.422 325.5,227.5C 326.167,226.833 326.833,226.167 327.5,225.5 Z"/></g>
<g><path style="opacity:0.859" fill="#e1d693" d="M 259.5,243.5 C 259.5,244.5 259.5,245.5 259.5,246.5C 258.488,249.257 257.488,251.924 256.5,254.5C 256.517,250.466 257.517,246.799 259.5,243.5 Z"/></g>
<g><path style="opacity:0.91" fill="#93a9b4" d="M 255.5,260.5 C 255.631,263.367 254.297,265.033 251.5,265.5C 252.864,263.809 254.197,262.142 255.5,260.5 Z"/></g>
<g><path style="opacity:0.016" fill="#fefffe" d="M 60.5,269.5 C 61.8333,270.167 61.8333,270.167 60.5,269.5 Z"/></g>
<g><path style="opacity:0.957" fill="#e9da90" d="M 255.5,257.5 C 255.5,258.5 255.5,259.5 255.5,260.5C 254.197,262.142 252.864,263.809 251.5,265.5C 245.978,268.092 240.311,270.425 234.5,272.5C 239.593,269.398 244.926,266.565 250.5,264C 252.55,262.035 254.217,259.868 255.5,257.5 Z"/></g>
<g><path style="opacity:0.851" fill="#a6b8c2" d="M 306.5,248.5 C 305.5,249.833 304.5,251.167 303.5,252.5C 285.468,264.859 266.468,275.526 246.5,284.5C 245.5,284.5 244.5,284.5 243.5,284.5C 265.6,274.288 286.6,262.288 306.5,248.5 Z"/></g>
<g><path style="opacity:0.533" fill="#d1dae0" d="M 92.5,249.5 C 93.2341,250.708 93.5674,252.041 93.5,253.5C 92.5732,251.424 90.9065,250.257 88.5,250C 84.5138,249.501 80.5138,249.334 76.5,249.5C 78.9071,260.464 82.2405,271.13 86.5,281.5C 87.4598,286.086 89.4598,290.086 92.5,293.5C 96.1412,299.436 99.8079,305.436 103.5,311.5C 103.291,312.086 102.957,312.586 102.5,313C 100.527,313.495 98.5273,313.662 96.5,313.5C 88.5173,314.166 80.5173,314.499 72.5,314.5C 80.5549,313.744 88.7216,312.744 97,311.5C 98.6406,313.045 99.8072,312.711 100.5,310.5C 86.8242,292.524 78.1575,272.19 74.5,249.5C 80.5,248.167 86.5,248.167 92.5,249.5 Z"/></g>
<g><path style="opacity:0.004" fill="#fefffe" d="M 53.5,272.5 C 54.8333,273.167 54.8333,273.167 53.5,272.5 Z"/></g>
<g><path style="opacity:0.912" fill="#eddd91" d="M 231.5,273.5 C 229.574,275.293 227.241,276.293 224.5,276.5C 226.426,274.707 228.759,273.707 231.5,273.5 Z"/></g>
<g><path style="opacity:0.422" fill="#ccd6dc" d="M 71.5,314.5 C 66.1667,314.5 60.8333,314.5 55.5,314.5C 44.8932,314.734 40.7266,309.734 43,299.5C 49.882,288.284 59.0486,279.451 70.5,273C 56.6408,277.029 44.8074,284.529 35,295.5C 26.3594,310.895 30.526,321.229 47.5,326.5C 50.0204,327.918 52.6871,328.918 55.5,329.5C 49.3891,329.74 43.8891,328.073 39,324.5C 31.7309,321.595 27.8976,315.761 27.5,307C 28.2827,303.368 29.4494,299.868 31,296.5C 41.5703,284.044 54.5703,275.044 70,269.5C 72.3193,270.409 72.9859,272.075 72,274.5C 67.5743,278.623 62.741,282.123 57.5,285C 54.2792,288.221 51.1126,291.387 48,294.5C 46.1422,297.763 44.9755,301.263 44.5,305C 45.0242,307.527 46.3576,309.527 48.5,311C 56.2256,312.731 63.8922,313.898 71.5,314.5 Z"/></g>
<g><path style="opacity:0.976" fill="#eade99" d="M 102.5,275.5 C 104.008,277.181 105.008,279.181 105.5,281.5C 103.461,280.089 102.461,278.089 102.5,275.5 Z"/></g>
<g><path style="opacity:0.937" fill="#e5da96" d="M 222.5,277.5 C 218.134,280.012 213.467,282.012 208.5,283.5C 212.614,280.449 217.28,278.449 222.5,277.5 Z"/></g>
<g><path style="opacity:0.937" fill="#8ea5b3" d="M 86.5,281.5 C 89.0078,285.182 91.0078,289.182 92.5,293.5C 89.4598,290.086 87.4598,286.086 86.5,281.5 Z"/></g>
<g><path style="opacity:0.882" fill="#e5da97" d="M 105.5,281.5 C 107.008,283.181 108.008,285.181 108.5,287.5C 106.461,286.089 105.461,284.089 105.5,281.5 Z"/></g>
<g><path style="opacity:0.765" fill="#e3d99a" d="M 204.5,284.5 C 203.22,285.931 201.553,286.598 199.5,286.5C 200.78,285.069 202.447,284.402 204.5,284.5 Z"/></g>
<g><path style="opacity:0.129" fill="#dbe2e6" d="M 243.5,284.5 C 244.5,284.5 245.5,284.5 246.5,284.5C 239.3,289.572 231.3,292.905 222.5,294.5C 224.261,293.687 225.928,292.687 227.5,291.5C 232.541,288.649 237.875,286.316 243.5,284.5 Z"/></g>
<g><path style="opacity:0.98" fill="#e8dc96" d="M 108.5,287.5 C 110.588,289.336 111.921,291.669 112.5,294.5C 110.412,292.664 109.079,290.331 108.5,287.5 Z"/></g>
<g><path style="opacity:0.753" fill="#92a4a7" d="M 195.5,288.5 C 193.491,290.065 191.157,291.065 188.5,291.5C 188.5,291.167 188.5,290.833 188.5,290.5C 190.701,289.434 193.035,288.767 195.5,288.5 Z"/></g>
<g><path style="opacity:0.963" fill="#e9dd96" d="M 188.5,290.5 C 188.5,290.833 188.5,291.167 188.5,291.5C 184.838,291.723 181.505,292.723 178.5,294.5C 177.5,294.5 176.5,294.5 175.5,294.5C 179.322,291.769 183.656,290.436 188.5,290.5 Z"/></g>
<g><path style="opacity:0.894" fill="#a4b7c2" d="M 227.5,291.5 C 225.928,292.687 224.261,293.687 222.5,294.5C 217.68,296.736 212.68,298.736 207.5,300.5C 202.5,301.833 197.5,303.167 192.5,304.5C 204.001,299.925 215.668,295.591 227.5,291.5 Z"/></g>
<g><path style="opacity:1" fill="#274c6e" d="M 146.5,333.5 C 149.667,336.777 153.334,339.61 157.5,342C 162.207,345.02 167.207,347.52 172.5,349.5C 174.5,352.167 176.5,352.167 178.5,349.5C 178.5,349.167 178.5,348.833 178.5,348.5C 182.655,347.258 186.322,345.258 189.5,342.5C 191.027,342.573 192.027,341.906 192.5,340.5C 195.285,341.084 196.952,340.084 197.5,337.5C 199.749,336.92 201.415,335.587 202.5,333.5C 205.331,332.921 207.664,331.588 209.5,329.5C 210.239,329.631 210.906,329.464 211.5,329C 215.858,324.693 219.858,320.193 223.5,315.5C 224.833,314.833 225.833,313.833 226.5,312.5C 228.587,311.415 229.92,309.749 230.5,307.5C 232.63,305.873 234.63,304.04 236.5,302C 242.667,299.722 248.667,297.055 254.5,294C 255.635,293.251 256.635,293.417 257.5,294.5C 239.308,327.524 212.975,351.691 178.5,367C 175.406,367.652 172.406,367.318 169.5,366C 153.612,358.562 139.279,348.895 126.5,337C 132.957,334.646 139.624,333.479 146.5,333.5 Z"/></g>
<g><path style="opacity:0.024" fill="#fefffe" d="M 241.5,294.5 C 242.833,295.167 242.833,295.167 241.5,294.5 Z"/></g>
<g><path style="opacity:0.816" fill="#e8d788" d="M 174.5,294.5 C 172.208,296.267 169.542,297.267 166.5,297.5C 168.792,295.733 171.458,294.733 174.5,294.5 Z"/></g>
<g><path style="opacity:0.91" fill="#6c8597" d="M 174.5,294.5 C 174.833,294.5 175.167,294.5 175.5,294.5C 176.5,294.5 177.5,294.5 178.5,294.5C 174.622,297.013 170.289,298.346 165.5,298.5C 165.5,297.833 165.833,297.5 166.5,297.5C 169.542,297.267 172.208,296.267 174.5,294.5 Z"/></g>
<g><path style="opacity:0.902" fill="#e5da97" d="M 148.5,302.5 C 145.257,303.49 141.924,304.49 138.5,305.5C 137.833,305.5 137.167,305.5 136.5,305.5C 140.076,303.272 144.076,302.272 148.5,302.5 Z"/></g>
<g><path style="opacity:0.251" fill="#f5f6f7" d="M 207.5,300.5 C 202.182,303.274 196.515,305.274 190.5,306.5C 191.167,305.833 191.833,305.167 192.5,304.5C 197.5,303.167 202.5,301.833 207.5,300.5 Z"/></g>
<g><path style="opacity:0.98" fill="#ece2a9" d="M 226.5,303.5 C 228.527,303.338 230.527,303.505 232.5,304C 231.177,304.816 230.511,305.983 230.5,307.5C 228.413,308.585 227.08,310.251 226.5,312.5C 225.833,313.833 224.833,314.833 223.5,315.5C 224.588,313.417 225.588,311.251 226.5,309C 224.833,308.333 223.167,308.333 221.5,309C 197.756,317.71 173.756,325.544 149.5,332.5C 157.767,340.447 167.433,345.781 178.5,348.5C 178.5,348.833 178.5,349.167 178.5,349.5C 176.5,349.5 174.5,349.5 172.5,349.5C 167.207,347.52 162.207,345.02 157.5,342C 153.334,339.61 149.667,336.777 146.5,333.5C 146.082,332.778 145.416,332.278 144.5,332C 146.066,331.392 147.4,330.558 148.5,329.5C 155.386,327.183 162.386,325.183 169.5,323.5C 172.152,323.59 174.485,322.924 176.5,321.5C 193.309,316.117 209.976,310.117 226.5,303.5 Z"/></g>
<g><path style="opacity:0.954" fill="#e9dd96" d="M 116.5,301.5 C 118.587,302.776 120.587,304.276 122.5,306C 124.81,306.497 127.143,306.663 129.5,306.5C 129.5,306.833 129.5,307.167 129.5,307.5C 127.901,307.232 126.568,307.566 125.5,308.5C 122.547,308.85 120.213,307.85 118.5,305.5C 118.267,303.938 117.6,302.605 116.5,301.5 Z"/></g>
<g><path style="opacity:0.855" fill="#a5b2ad" d="M 136.5,305.5 C 137.167,305.5 137.833,305.5 138.5,305.5C 135.781,306.913 132.781,307.58 129.5,307.5C 129.5,307.167 129.5,306.833 129.5,306.5C 131.806,306.007 134.139,305.674 136.5,305.5 Z"/></g>
<g><path style="opacity:0.078" fill="#fefffe" d="M 56.5,307.5 C 57.8333,308.167 57.8333,308.167 56.5,307.5 Z"/></g>
<g><path style="opacity:0.831" fill="#7691a3" d="M 118.5,305.5 C 120.213,307.85 122.547,308.85 125.5,308.5C 122.022,310.33 119.689,309.33 118.5,305.5 Z"/></g>
<g><path style="opacity:1" fill="#efc02c" d="M 223.5,315.5 C 220.808,317.862 218.141,320.196 215.5,322.5C 210.843,325.827 206.509,329.494 202.5,333.5C 201.415,335.587 199.749,336.92 197.5,337.5C 195.326,337.75 193.659,338.75 192.5,340.5C 190.973,340.427 189.973,341.094 189.5,342.5C 186.322,345.258 182.655,347.258 178.5,348.5C 167.433,345.781 157.767,340.447 149.5,332.5C 173.756,325.544 197.756,317.71 221.5,309C 223.167,308.333 224.833,308.333 226.5,309C 225.588,311.251 224.588,313.417 223.5,315.5 Z"/></g>
<g><path style="opacity:0.055" fill="#fefffe" d="M 71.5,309.5 C 72.8333,310.167 72.8333,310.167 71.5,309.5 Z"/></g>
<g><path style="opacity:0.749" fill="#7f96a2" d="M 230.5,307.5 C 229.92,309.749 228.587,311.415 226.5,312.5C 227.08,310.251 228.413,308.585 230.5,307.5 Z"/></g>
<g><path style="opacity:0.404" fill="#bfccd4" d="M 192.5,304.5 C 191.833,305.167 191.167,305.833 190.5,306.5C 175.898,311.807 160.898,316.141 145.5,319.5C 140.853,320.296 136.186,320.963 131.5,321.5C 151.907,316.478 172.241,310.811 192.5,304.5 Z"/></g>
<g><path style="opacity:0.969" fill="#93aab7" d="M 96.5,313.5 C 88.7263,315.031 80.7263,315.698 72.5,315.5C 66.6565,315.499 60.9899,315.166 55.5,314.5C 60.8333,314.5 66.1667,314.5 71.5,314.5C 71.8333,314.5 72.1667,314.5 72.5,314.5C 80.5173,314.499 88.5173,314.166 96.5,313.5 Z"/></g>
<g><path style="opacity:0.333" fill="#fbfbf9" d="M 176.5,321.5 C 174.485,322.924 172.152,323.59 169.5,323.5C 171.438,321.837 173.772,321.171 176.5,321.5 Z"/></g>
<g><path style="opacity:0.937" fill="#8ea5b3" d="M 131.5,321.5 C 126.794,323.375 121.794,324.375 116.5,324.5C 121.256,322.882 126.256,321.882 131.5,321.5 Z"/></g>
<g><path style="opacity:0.757" fill="#79919f" d="M 223.5,315.5 C 219.858,320.193 215.858,324.693 211.5,329C 210.906,329.464 210.239,329.631 209.5,329.5C 211.5,327.167 213.5,324.833 215.5,322.5C 218.141,320.196 220.808,317.862 223.5,315.5 Z"/></g>
<g><path style="opacity:0.749" fill="#98adba" d="M 111.5,325.5 C 104.076,327.348 96.4096,328.514 88.5,329C 77.505,329.5 66.505,329.667 55.5,329.5C 52.6871,328.918 50.0204,327.918 47.5,326.5C 55.6009,327.844 63.7676,328.511 72,328.5C 85.2067,327.951 98.3734,326.951 111.5,325.5 Z"/></g>
<g><path style="opacity:0.379" fill="#f2f4f5" d="M 145.5,319.5 C 116.148,328.895 86.1477,332.228 55.5,329.5C 66.505,329.667 77.505,329.5 88.5,329C 96.4096,328.514 104.076,327.348 111.5,325.5C 112.919,324.549 114.585,324.216 116.5,324.5C 121.794,324.375 126.794,323.375 131.5,321.5C 136.186,320.963 140.853,320.296 145.5,319.5 Z"/></g>
<g><path style="opacity:0.718" fill="#d8d29f" d="M 215.5,322.5 C 213.5,324.833 211.5,327.167 209.5,329.5C 207.664,331.588 205.331,332.921 202.5,333.5C 206.509,329.494 210.843,325.827 215.5,322.5 Z"/></g>
<g><path style="opacity:0.792" fill="#b7c6ce" d="M 148.5,329.5 C 147.4,330.558 146.066,331.392 144.5,332C 145.416,332.278 146.082,332.778 146.5,333.5C 139.624,333.479 132.957,334.646 126.5,337C 139.279,348.895 153.612,358.562 169.5,366C 172.406,367.318 175.406,367.652 178.5,367C 212.975,351.691 239.308,327.524 257.5,294.5C 256.635,293.417 255.635,293.251 254.5,294C 248.667,297.055 242.667,299.722 236.5,302C 234.63,304.04 232.63,305.873 230.5,307.5C 230.511,305.983 231.177,304.816 232.5,304C 230.527,303.505 228.527,303.338 226.5,303.5C 235.454,299.828 244.454,295.994 253.5,292C 256.278,290.282 258.944,290.282 261.5,292C 242.503,327.663 214.503,353.663 177.5,370C 175.087,370.484 172.754,370.15 170.5,369C 152.903,361.045 137.237,350.379 123.5,337C 123.905,336.055 124.572,335.388 125.5,335C 133.238,333.315 140.905,331.482 148.5,329.5 Z"/></g>
<g><path style="opacity:0.761" fill="#c8c79f" d="M 197.5,337.5 C 196.952,340.084 195.285,341.084 192.5,340.5C 193.659,338.75 195.326,337.75 197.5,337.5 Z"/></g>
<g><path style="opacity:0.737" fill="#e0d89a" d="M 192.5,340.5 C 192.027,341.906 191.027,342.573 189.5,342.5C 189.973,341.094 190.973,340.427 192.5,340.5 Z"/></g>
<g><path style="opacity:0.016" fill="#fefffe" d="M 89.5,343.5 C 92.0009,343.511 92.1676,344.178 90,345.5C 89.5357,344.906 89.369,344.239 89.5,343.5 Z"/></g>
<g><path style="opacity:0.875" fill="#91a9b6" d="M 172.5,349.5 C 174.5,349.5 176.5,349.5 178.5,349.5C 176.5,352.167 174.5,352.167 172.5,349.5 Z"/></g>
<g><path style="opacity:0.176" fill="#fafafa" d="M 210.5,360.5 C 210.897,359.475 211.563,359.308 212.5,360C 211.906,360.464 211.239,360.631 210.5,360.5 Z"/></g>
<g><path style="opacity:0.052" fill="#fefffe" d="M 190.5,368.5 C 191.773,369.077 191.773,369.743 190.5,370.5C 189.537,370.03 189.537,369.363 190.5,368.5 Z"/></g>
</svg>
