<?xml version="1.0" encoding="UTF-8" standalone="no"?>
<!DOCTYPE svg PUBLIC "-//W3C//DTD SVG 1.1//EN" "http://www.w3.org/Graphics/SVG/1.1/DTD/svg11.dtd">
<!-- Created with Vectornator (http://vectornator.io/) -->
<svg height="100%" stroke-miterlimit="10" style="fill-rule:nonzero;clip-rule:evenodd;stroke-linecap:round;stroke-linejoin:round;" version="1.1" viewBox="137.851 100.446 524.415 585.109" width="100%" xml:space="preserve" xmlns="http://www.w3.org/2000/svg" xmlns:vectornator="http://vectornator.io" xmlns:xlink="http://www.w3.org/1999/xlink">
<defs/>
<g id="Layer-3-copy-copy" vectornator:layerName="Layer 3 copy copy">
<path d="M369.468 111.556C368.044 102.086 373.38 100.07 380.925 100.499L424.171 100.877C431.275 100.994 433.903 102.469 432.033 112.798L418.532 217.45C415.369 222.796 412.581 224.083 407.445 225.056L395.755 224.714C389.68 224.783 386.947 224.246 383.047 216.563L369.468 111.556Z" fill="#f0bf27" fill-rule="nonzero" opacity="1" stroke="none" vectornator:layerName="Curve 1"/>
<path d="M349.961 126.394C355.054 162.582 357.764 188.635 362.527 219.62C364.948 235.366 373.298 239.062 382.749 243.508C388.873 244.881 400.927 247.297 416.809 244.478C424.635 242.028 435.573 234.197 439.045 219.153C442.924 196.055 449.243 133.756 451.202 126.154C451.802 123.824 452.955 122.231 454.67 122.3C458.214 122.443 488.064 126.102 518.775 162.582C544.615 193.276 542.47 240.29 542.637 241.099C543.595 245.723 542.69 251.576 547.728 251.177C554.144 252.163 555.868 250.929 563.787 252.939C566.464 253.618 567.033 255.181 568.251 256.364C569.34 257.42 570.486 269.425 568.934 274.916C568.772 275.49 568.829 275.982 568.473 276.63C568.202 277.122 567.658 277.771 567.243 278.322C566.361 279.492 565.336 280.322 563.298 280.8C553.355 283.128 263.285 281.181 237.824 280.71C234.915 279.402 233.836 278.468 233.004 276.13C230.638 269.488 231.243 257.944 234.915 254.39C239.526 248.717 255.641 255.067 258.699 247.94C255.125 169.016 309 132.74 344.084 123.44C346.944 122.682 349.42 123.061 349.961 126.394Z" fill="#f0bf27" fill-rule="nonzero" opacity="1" stroke="none" vectornator:layerName="Curve 2"/>
<path d="M406.592 303.898C406.592 303.898 241.83 343.364 227.31 348.429C225.499 389.1 229.302 427.997 236.279 462.586C299.84 468.768 381.841 461.689 401.81 459.429C454.965 455.448 534.028 437.74 585.779 417.617C587.358 395.612 587.638 372.977 588.029 347.179C523.883 333.133 406.592 303.898 406.592 303.898ZM583.279 443.242C507.655 472.117 406.654 480.804 406.654 480.804C406.654 480.804 317.488 492.18 241.279 484.336C253.148 531.337 270.455 568.232 285.873 587.086C292.335 595.963 298.552 603.684 304.748 610.961C359.951 602.173 417.913 585.543 437.123 576.742C462.527 569.064 493.538 557.381 523.967 543.711C536.154 538.236 548.175 532.411 559.779 526.429C572.821 495.742 579.661 469.297 583.279 443.242ZM322.654 630.211C346.19 653.04 371.396 668.424 407.529 685.554C474.062 650.926 495.742 633.47 526.935 590.648C533.612 579.282 539.413 568.628 544.685 558.398C493.144 582.31 446.498 596.554 446.498 596.554C446.498 596.554 386.828 618.041 322.654 630.211Z" fill="#244a6d" fill-rule="nonzero" opacity="1" stroke="none" vectornator:layerName="Curve 11"/>
<path d="M404.029 329.273C404.029 329.273 265.53 364.435 253.185 368.742C250.124 399.268 254.387 432.977 261.935 464.336C320.192 466.968 384.448 461.394 401.81 459.429C446.059 456.115 508.074 443.243 557.529 427.429C560.004 407.177 561.091 387.46 560.842 369.023C512.445 353.334 404.029 329.273 404.029 329.273ZM553.498 453.273C483.626 474.17 406.654 480.804 406.654 480.804C406.654 480.804 336.746 489.65 267.81 486.242C279.477 525.382 295.231 558.168 306.248 571.867C315.851 585.373 324.996 596.296 333.967 605.617C379.16 596.503 421.305 583.989 437.123 576.742C462.527 569.064 493.538 557.381 523.967 543.711C524.218 543.598 524.465 543.48 524.717 543.367C538.803 513.795 547.901 483.192 553.498 453.273ZM507.81 574.367C472.842 588.514 446.498 596.554 446.498 596.554C446.498 596.554 404.664 611.519 353.498 623.554C370.978 637.699 388.325 647.065 407.373 656.711C462.759 625.745 474.808 615.562 507.81 574.367Z" fill="#f0bf27" fill-rule="nonzero" opacity="1" stroke="none" vectornator:layerName="Curve 10"/>
<path d="M216.277 364.896C215.583 368.097 171.205 377.248 160.136 403.092C157.267 409.789 159.933 416.423 162.713 419.76C188.652 450.892 369.066 440.609 398.78 437.247C472.421 431.732 596.09 399.901 627.434 371.75C637.097 363.296 633.153 356.86 631.525 354.655C615.562 338.483 582.555 334.651 582.462 333.272C582.355 331.681 625.523 329.559 644.072 341.734C662.101 354.338 655.193 369.562 649.401 377.974C598.129 442.191 404.089 460.253 404.089 460.253C404.089 460.253 251.67 479.132 174.888 449.951C145.674 438.848 139.32 425.843 138.063 416.671C136.344 404.126 145.059 390.266 164.102 380.656C180.139 372.563 217.586 358.869 216.277 364.896Z" fill="#244a6d" fill-rule="nonzero" opacity="1" stroke="none" vectornator:layerName="Curve 6"/>
<path d="M233.219 525.322C233.236 528.621 190.583 555.069 185.49 576.111C183.402 584.737 188.795 589.369 194.169 591.703C239.619 611.446 390.87 569.603 425.802 557.577C477.281 539.854 609.735 484.41 634.796 444.024C641.398 433.748 639.703 428.227 634.954 425.397C622.537 417.998 586.42 419.392 583.153 416.75C586.655 412.724 630.036 405.332 644.524 411.112C666.622 419.929 663.746 434.95 658.718 447.054C629.864 517.741 435.614 579.605 435.614 579.605C435.614 579.605 291.497 629.299 210.212 617.475C177.056 613.588 169.116 598.667 166.832 594.066C160.631 581.571 170.163 563.914 184.338 552.223C201.164 538.344 233.189 519.154 233.219 525.322Z" fill="#244a6d" fill-rule="nonzero" opacity="1" stroke="none" vectornator:layerName="Curve 7"/>
</g>
</svg>
